HIERARCHY
ROOT Hips
{
  OFFSET -215.483 97.9105 -182.165
  CHANNELS 6 Xposition Yposition Zposition Zrotation Xrotation Yrotation
  JOINT ToSpine
  {
    OFFSET -0.0105055 1.38907 -7.13956
    CHANNELS 3 Zrotation Xrotation Yrotation
    JOINT Spine
    {
      OFFSET 0.0105055 10 1
      CHANNELS 3 Zrotation Xrotation Yrotation
      JOINT Spine1
      {
        OFFSET 0 12 1.60637
        CHANNELS 3 Zrotation Xrotation Yrotation
        JOINT Neck
        {
          OFFSET 0 27 2.26658
          CHANNELS 3 Zrotation Xrotation Yrotation
          JOINT Head
          {
            OFFSET 0 9 2.12705
            CHANNELS 3 Zrotation Xrotation Yrotation
            End Site
            {
              OFFSET 0 11 2
            }
          }
        }
        JOINT LeftShoulder
        {
          OFFSET 8 19.6109 2.86452
          CHANNELS 3 Zrotation Xrotation Yrotation
          JOINT LeftArm
          {
            OFFSET 12 1 0.681055
            CHANNELS 3 Zrotation Xrotation Yrotation
            JOINT LeftForeArm
            {
              OFFSET 19 0 -1.52608
              CHANNELS 3 Zrotation Xrotation Yrotation
              JOINT LeftHand
              {
                OFFSET 23 0 0
                CHANNELS 3 Zrotation Xrotation Yrotation
                End Site
                {
                  OFFSET 10 0 0
                }
              }
            }
          }
        }
        JOINT RightShoulder
        {
          OFFSET -8 19.6109 2.86452
          CHANNELS 3 Zrotation Xrotation Yrotation
          JOINT RightArm
          {
            OFFSET -12 1 0.681055
            CHANNELS 3 Zrotation Xrotation Yrotation
            JOINT RightForeArm
            {
              OFFSET -19 0 -1.52608
              CHANNELS 3 Zrotation Xrotation Yrotation
              JOINT RightHand
              {
                OFFSET -23 0 0
                CHANNELS 3 Zrotation Xrotation Yrotation
                End Site
                {
                  OFFSET -10 0 0
                }
              }
            }
          }
        }
      }
    }
  }
  JOINT LeftUpLeg
  {
    OFFSET 9 -7.17245 0
    CHANNELS 3 Zrotation Xrotation Yrotation
    JOINT LeftLeg
    {
      OFFSET 0 -44.1113 0
      CHANNELS 3 Zrotation Xrotation Yrotation
      JOINT LeftFoot
      {
        OFFSET 0 -36.1829 0
        CHANNELS 3 Zrotation Xrotation Yrotation
        JOINT LeftToeBase
        {
          OFFSET 0 -4.84184 13
          CHANNELS 3 Zrotation Xrotation Yrotation
          End Site
          {
            OFFSET 0 1 6
          }
        }
      }
    }
  }
  JOINT RightUpLeg
  {
    OFFSET -9 -7.17245 0
    CHANNELS 3 Zrotation Xrotation Yrotation
    JOINT RightLeg
    {
      OFFSET 0 -44.0551 0
      CHANNELS 3 Zrotation Xrotation Yrotation
      JOINT RightFoot
      {
        OFFSET 0 -36.1469 0
        CHANNELS 3 Zrotation Xrotation Yrotation
        JOINT RightToeBase
        {
          OFFSET 0 -4.92256 13
          CHANNELS 3 Zrotation Xrotation Yrotation
          End Site
          {
            OFFSET 0 1 6
          }
        }
      }
    }
  }
}
MOTION
Frames:	12
Frame Time:	0.0333333
-209.808 98.3242 -188.554 -3.93031 3.67377 -131.443 0 0 0 3.26892 4.84747 0.492962 -5.21147 5.20482 1.61878 7.53788 -0.238889 -1.18525 -2.05037 -3.88078 1.45391 -34.1869 3.96226 -6.32149 -38.5465 25.279 -7.05457 -2.52923 -7.20892 -11.4281 -10.292 0.121615 -1.34978 24.57 5.39274 13.8886 53.0166 11.8296 -0.626254 1.73087 -3.32683 16.6546 3.31815 0.11981 4.14193 4.93065 -1.39948 8.52088 -1.32443 13.41 -7.82147 5.90694 -2.64777 0.136887 1.31464 -10.924 -4.02666 -0.174822 1.02399 -8.52725 2.57309 13.17 -9.85026 -14.8145 -5.11348 -0.664655 2.04845 -6.44473 -4.7944 
-209.893 98.2873 -188.562 -3.96165 3.80207 -131.469 0 0 0 3.1425 5.16183 0.451859 -5.03653 4.95312 1.52168 7.37702 -0.328458 -1.14887 -1.84077 -3.6957 1.39937 -34.1781 3.93645 -6.26019 -38.498 25.1128 -7.17026 -2.28396 -6.57783 -11.5893 -10.4412 0.132428 -1.44913 24.3633 5.36433 13.9082 53.3415 11.8669 -0.822043 1.73165 -3.26854 16.7545 3.15347 0.12469 4.52043 5.11475 -1.44226 8.76674 -1.49949 13.9576 -7.9744 6.10902 -2.91001 0.15485 1.31807 -10.7489 -4.08369 -0.130184 1.24583 -8.50877 2.72553 12.9483 -9.9095 -15.9761 -4.60231 -0.646207 2.28238 -7.42191 -5.05333 
-209.915 98.2486 -188.52 -3.61432 3.8519 -131.528 0 0 0 3.47111 5.16211 0.385771 -5.2596 4.74367 1.50515 7.65572 -0.434304 -1.16649 -2.2393 -3.50789 1.53727 -33.5818 3.92685 -6.38358 -38.7667 24.7747 -7.34777 -2.27559 -6.74004 -11.7302 -10.416 0.106914 -1.17292 24.5651 5.39302 13.8921 53.3022 11.788 -0.936402 1.66213 -3.2121 16.9628 3.52737 0.139611 4.54383 5.50832 -1.80405 9.05724 -1.71731 14.2454 -8.03249 6.968 -2.53045 0.154314 1.38458 -12.1444 -4.245 0.209662 1.01191 -8.21444 2.70922 12.7915 -10.2713 -16.5749 -4.24676 -0.619089 2.4319 -8.11891 -4.94561 
-209.917 98.2541 -188.46 -3.22644 3.79051 -131.606 0 0 0 3.68361 5.07481 0.349763 -5.35917 4.58984 1.48623 7.60757 -0.449467 -1.02436 -2.20297 -3.66115 1.65317 -33.6803 3.92345 -6.35064 -38.17 25.3008 -7.49001 -2.18648 -7.00041 -12.3893 -10.4386 0.111714 -1.22538 24.6305 5.42531 13.96 53.3093 11.8192 -0.977709 1.46647 -2.70692 17.088 3.9696 0.138654 3.99374 5.81808 -2.37014 9.2555 -1.90878 14.6662 -8.30939 7.48247 -2.62046 0.171408 1.32828 -12.1502 -3.82006 0.46878 0.681038 -7.93498 2.65191 12.5991 -10.4843 -16.5845 -4.13288 -0.602602 2.38811 -7.89446 -5.0583 
-210.015 98.2636 -188.397 -3.17909 3.69678 -131.759 0 0 0 3.55978 4.97341 0.373781 -5.22512 4.77545 1.48587 7.42337 -1.06363 -0.83899 -2.19014 -3.08219 1.75 -33.7177 3.90422 -6.29324 -37.6859 25.6359 -7.91683 -2.27697 -7.51344 -12.5516 -10.0926 0.134062 -1.51673 24.6609 5.44264 13.9987 53.145 11.8678 -0.830295 1.52995 -2.83077 16.8173 3.91956 0.131312 3.83874 5.65611 -2.35142 9.16306 -1.88748 14.5422 -8.14356 7.32688 -2.82053 0.18067 1.26816 -11.558 -3.54908 0.338122 0.5567 -7.97574 2.61962 12.6842 -10.2182 -16.5527 -4.04416 -0.588394 2.43168 -8.05847 -5.18775 
-210.133 98.3021 -188.321 -3.43569 3.65389 -131.919 0 0 0 3.24578 5.13576 0.410643 -5.10351 4.87554 1.50222 7.4795 -0.910884 -0.855688 -2.15391 -3.2539 1.74968 -33.4594 3.90223 -6.35254 -37.8602 24.6709 -8.11839 -1.88196 -6.27774 -12.6969 -10.4126 0.114043 -1.25156 24.7018 5.43345 13.9478 53.0083 11.8788 -0.919886 1.66512 -3.18969 16.7409 3.59745 0.135103 4.30226 5.24588 -1.95714 8.95635 -1.7695 14.1258 -7.65284 6.68647 -2.83043 0.165404 1.32658 -11.2147 -4.04016 -0.00951202 0.734363 -8.20986 2.57852 12.7295 -9.86445 -16.2281 -4.2109 -0.600666 2.34378 -7.75513 -4.82862 
-210.191 98.2984 -188.235 -3.24457 3.65393 -131.974 0 0 0 3.51992 5.10445 0.328471 -5.34651 4.82191 1.46555 7.52727 -0.768875 -0.811408 -1.98758 -3.40114 1.78125 -33.3589 3.92505 -6.43527 -37.7467 23.7622 -8.25697 -1.17509 -4.23226 -12.5135 -11.246 0.148023 -1.51377 24.7292 5.40379 13.8394 53.0223 11.8477 -0.907121 1.67781 -3.16462 16.5949 3.3059 0.126368 4.37558 5.3496 -2.19579 9.04107 -1.78958 14.3554 -7.72324 6.68255 -2.99418 0.174893 1.30006 -11.0132 -3.90705 0.0893426 0.650015 -8.06307 2.57075 12.5179 -9.98528 -16.2929 -4.07747 -0.583909 2.35435 -7.77293 -4.94145 
-210.302 98.3029 -188.087 -3.25629 3.59243 -132.139 0 0 0 3.62403 5.14236 0.26529 -5.41426 4.87058 1.42887 7.30812 -0.887898 -0.586024 -1.93607 -3.29302 1.92399 -33.3993 3.91796 -6.40819 -37.4774 24.0346 -8.26741 -1.10704 -4.21984 -12.9262 -10.5282 0.222082 -2.40424 24.74 5.42835 13.9103 52.8777 11.5939 -1.06189 1.61542 -3.12031 16.7698 3.37775 0.129997 4.45468 5.13243 -2.05988 8.95139 -1.80538 14.0212 -7.37733 6.59244 -2.94598 0.170009 1.32994 -10.7892 -4.16089 -0.200008 0.421183 -8.2821 2.66499 12.8987 -9.56035 -16.4279 -4.06898 -0.587843 2.42189 -8.07947 -4.92581 
-210.29 98.2493 -187.915 -3.23305 3.47928 -132.661 0 0 0 3.12842 5.46707 0.457999 -4.62333 4.6607 1.43129 6.46738 -1.13391 -0.279387 -1.56245 -3.14247 1.89566 -34.3146 3.92254 -6.19189 -36.6275 24.4736 -8.49107 -1.42322 -5.28782 -13.1693 -10.2415 0.212876 -2.37446 24.6744 5.25464 13.4028 52.3917 11.9256 -0.695287 1.58444 -2.86416 16.5144 2.96938 0.148326 5.71888 4.98577 -2.33639 8.9706 -1.97031 14.3054 -7.04363 7.95728 -2.34695 0.160339 1.3047 -11.6753 -3.77586 -0.378864 -0.214937 -8.23442 2.60969 13.7029 -9.21822 -17.0796 -4.04281 -0.605603 2.4829 -8.34879 -4.92397 
-210.238 98.1205 -187.708 -3.31769 3.24662 -133.017 0 0 0 3.18798 5.86716 0.452393 -5.12777 4.25228 1.52099 6.35501 -1.01309 -0.215747 -1.13547 -3.19437 1.84822 -34.1768 3.93414 -6.25466 -36.7363 24.0646 -8.33702 -1.31178 -5.03701 -13.166 -10.321 0.245133 -2.7134 25.6019 5.14956 12.606 51.4094 12.3681 0.000695564 1.46984 -1.98025 15.6391 3.34168 0.139893 4.78351 4.66339 -2.89511 8.92948 -2.19676 14.9212 -6.45761 10.2154 -1.4098 0.128107 1.30901 -13.0631 -3.41849 -0.78579 -1.20908 -8.69521 2.66769 15.1509 -8.57535 -19.2018 -3.70642 -0.628361 2.78571 -9.63479 -5.31076 
-210.029 97.9482 -187.39 -3.46208 2.92758 -133.423 0 0 0 2.74745 6.64281 0.532337 -5.02727 3.83497 1.56407 6.10527 -1.83071 -0.0153982 -1.1095 -2.78616 1.92748 -33.8294 3.91869 -6.3016 -37.3183 23.5364 -8.23189 -1.2287 -5.29513 -13.6204 -10.0139 0.23578 -2.69378 24.6058 5.39982 13.8855 51.7777 11.8151 -0.852892 1.49908 -2.55378 16.4146 3.44519 0.150762 5.00835 4.33034 -3.83324 8.87351 -2.29354 16.1595 -6.05832 10.2331 -1.68485 0.147664 1.2211 -12.6503 -2.87443 -1.48459 -2.95119 -10.7404 2.4929 17.9693 -6.46471 -20.7814 -4.12644 -0.757563 2.90543 -10.1121 -5.68937 
-209.545 97.626 -186.995 -3.56303 2.25715 -133.905 0 0 0 1.79739 8.39587 0.798948 -4.70833 2.10721 1.71127 5.50256 -2.62237 0.191773 -0.816411 -2.71049 1.86473 -33.7584 3.86956 -6.19673 -37.894 23.2742 -7.4206 -1.04291 -6.0991 -15.2613 -9.38423 0.240191 -2.92397 23.8109 5.03547 13.1391 52.222 12.2053 -0.295293 1.38511 -2.22847 16.57 3.58684 0.147427 4.71905 4.11213 -5.65095 9.07772 -2.48809 18.4921 -5.64614 8.50581 -3.21702 0.240612 1.21586 -10.9103 -3.35191 -2.45803 -5.58483 -14.7169 1.48489 21.6227 -2.17669 -23.9453 -3.88154 -0.819887 3.39002 -12.2611 -6.33075 
